<?xml version="1.0" encoding="UTF-8"?>
<!DOCTYPE svg PUBLIC "-//W3C//DTD SVG 1.1//EN" "http://www.w3.org/Graphics/SVG/1.1/DTD/svg11.dtd">
<!-- Creator: CorelDRAW SE -->
<svg xmlns="http://www.w3.org/2000/svg" xml:space="preserve" width="9.76cm" height="7.26cm" version="1.1" style="shape-rendering:geometricPrecision; text-rendering:geometricPrecision; image-rendering:optimizeQuality; fill-rule:evenodd; clip-rule:evenodd"
viewBox="0 0 97600 72600"
 xmlns:xlink="http://www.w3.org/1999/xlink">
 <defs>
  <style type="text/css">
   <![CDATA[
    .str0 {stroke:black;stroke-width:76.2}
    .fil1 {fill:none}
    .fil2 {fill:black}
    .fil0 {fill:black;fill-rule:nonzero}
   ]]>
  </style>
 </defs>
 <g id="Warstwa_x0020_1">
  <metadata id="CorelCorpID_0Corel-Layer"/>
  <g id="_575551528">
   <path class="fil0" d="M3514 60169l622 1520 804 0 -1988 -4834 -908 0 -1980 4834 778 0 605 -1520 2067 0zm-1911 -488l571 -1399c112,-294 207,-588 294,-875l17 0c86,280 173,567 303,882l570 1392 -1755 0zm12126 2008l735 0 -363 -4834 -960 0 -1037 2338c-259,610 -467,1141 -614,1628l-26 0c-147,-502 -345,-1033 -588,-1628l-994 -2338 -960 0 -406 4834 718 0 155 -2073c52,-724 95,-1534 113,-2137l17 0c164,574 398,1198 674,1879l943 2302 570 0 1029 -2345c294,-667 536,-1270 735,-1836l26 0c-9,603 43,1413 86,2087l147 2123zm5824 0l761 0 0 -4303 1780 0 0 -531 -4314 0 0 531 1773 0 0 4303zm9766 0l752 0 0 -1936c173,35 381,43 605,43 735,0 1384,-180 1781,-531 294,-251 450,-596 450,-1033 0,-430 -190,-782 -510,-1011 -346,-258 -890,-402 -1634,-402 -605,0 -1081,43 -1444,93l0 4777zm752 -4325c130,-28 381,-50 709,-50 830,0 1375,308 1375,947 0,667 -553,1032 -1461,1032 -251,0 -459,-14 -623,-50l0 -1879zm6757 4325l753 0 0 -2094 709 0c682,21 994,272 1167,939 164,603 294,1019 389,1155l778 0c-121,-186 -260,-652 -450,-1327 -138,-502 -406,-846 -856,-975l0 -22c614,-172 1098,-595 1098,-1233 0,-373 -164,-703 -458,-918 -363,-273 -882,-395 -1686,-395 -519,0 -1063,36 -1444,100l0 4770zm753 -4332c121,-29 380,-57 743,-57 796,7 1340,279 1340,903 0,553 -510,918 -1314,918l-769 0 0 -1764zm9861 2812l622 1520 804 0 -1988 -4834 -908 0 -1980 4834 778 0 605 -1520 2067 0zm-1911 -488l570 -1399c113,-294 208,-588 294,-875l18 0c86,280 173,567 303,882l570 1392 -1755 0zm10890 1356c-303,121 -770,200 -1228,200 -1418,0 -2239,-760 -2239,-1944 0,-1269 908,-1993 2274,-1993 484,0 890,86 1176,200l181 -509c-199,-86 -657,-215 -1383,-215 -1807,0 -3043,1026 -3043,2539 0,1585 1236,2446 2878,2446 710,0 1263,-115 1539,-230l-155 -494zm6186 -4261c-1556,0 -2706,1004 -2706,2539 0,1463 1081,2453 2620,2453 1487,0 2706,-882 2706,-2546 0,-1435 -1029,-2446 -2620,-2446zm-34 509c1253,0 1859,1004 1859,1965 0,1098 -675,2009 -1868,2009 -1184,0 -1859,-925 -1859,-1958 0,-1062 623,-2016 1868,-2016zm8279 4404l829 -2517c217,-624 347,-1098 450,-1578l17 0c78,488 200,961 381,1578l735 2517 787 0 1651 -4834 -769 0 -770 2438c-181,603 -346,1141 -467,1672l-17 0c-87,-510 -242,-1083 -407,-1657l-708 -2453 -787 0 -778 2438c-199,625 -381,1198 -476,1679l-17 0c-104,-466 -259,-1069 -432,-1671l-692 -2446 -796 0 1479 4834 787 0zm9195 0l0 -2066c0,-803 -17,-1384 -61,-1993l26 -8c294,524 683,1076 1090,1614l1850 2453 761 0 0 -4834 -709 0 0 2023c0,753 17,1341 86,1986l-17 7c-277,-494 -614,-1004 -1046,-1570l-1868 -2446 -821 0 0 4834 709 0zm7890 -4834l0 4834 752 0 0 -4834 -752 0zm7985 3314l622 1520 804 0 -1988 -4834 -908 0 -1980 4834 778 0 605 -1520 2067 0zm-1911 -488l571 -1399c112,-294 207,-588 293,-875l18 0c86,280 172,567 303,882l570 1392 -1755 0zm-90497 11253l622 1521 804 0 -1988 -4834 -908 0 -1980 4834 778 0 605 -1521 2067 0zm-1911 -488l571 -1398c112,-294 207,-588 294,-875l17 0c86,279 173,566 303,882l570 1391 -1755 0zm8054 2009l752 0 0 -2095 709 0c683,22 994,273 1167,940 165,602 294,1018 389,1155l778 0c-121,-187 -259,-653 -449,-1327 -139,-502 -407,-847 -856,-976l0 -21c614,-172 1098,-596 1098,-1234 0,-373 -164,-703 -458,-918 -363,-273 -882,-394 -1686,-394 -519,0 -1064,36 -1444,100l0 4770zm752 -4332c121,-29 381,-58 744,-58 795,7 1340,280 1340,904 0,552 -510,918 -1315,918l-769 0 0 -1764zm11702 3679c-302,122 -769,201 -1227,201 -1418,0 -2239,-761 -2239,-1944 0,-1269 907,-1994 2273,-1994 484,0 891,86 1176,201l182 -509c-199,-86 -657,-215 -1384,-215 -1807,0 -3043,1025 -3043,2539 0,1585 1236,2445 2879,2445 709,0 1262,-115 1539,-229l-156 -495zm4959 -4181l0 4834 752 0 0 -2267 2819 0 0 2267 761 0 0 -4834 -761 0 0 2022 -2819 0 0 -2022 -752 0zm9498 0l0 4834 752 0 0 -4834 -752 0zm7034 4834l760 0 0 -4304 1781 0 0 -530 -4314 0 0 530 1773 0 0 4304zm10068 -2783l-2265 0 0 -1528 2395 0 0 -523 -3147 0 0 4834 3276 0 0 -524 -2524 0 0 -1743 2265 0 0 -516zm5097 2783l752 0 0 -1844 553 -530 1919 2374 891 0 -2274 -2783 2110 -2051 -934 0 -1781 1814c-147,158 -303,330 -458,516l-26 0 0 -2330 -752 0 0 4834zm9835 0l760 0 0 -4304 1781 0 0 -530 -4314 0 0 530 1773 0 0 4304zm7042 -4834l0 2847c0,1499 899,2065 2092,2065 1263,0 2205,-609 2205,-2094l0 -2818 -761 0 0 2861c0,1069 -553,1542 -1418,1542 -778,0 -1357,-459 -1357,-1542l0 -2861 -761 0zm9463 4834l752 0 0 -2095 709 0c683,22 995,273 1167,940 165,602 294,1018 390,1155l778 0c-122,-187 -260,-653 -450,-1327 -138,-502 -407,-847 -856,-976l0 -21c614,-172 1098,-596 1098,-1234 0,-373 -164,-703 -458,-918 -363,-273 -882,-394 -1686,-394 -519,0 -1063,36 -1444,100l0 4770zm752 -4332c121,-29 381,-58 744,-58 795,7 1340,280 1340,904 0,552 -510,918 -1314,918l-770 0 0 -1764zm9723 4332l0 -2059 1954 -2775 -856 0 -839 1333c-224,366 -423,682 -588,997l-17 0c-181,-337 -354,-631 -579,-997l-821 -1333 -856 0 1841 2782 0 2052 761 0z"/>
   <polygon class="fil1 str0" points="64,67 29154,67 29154,49525 64,49525 "/>
   <polygon class="fil1 str0" points="68283,67 97372,67 97372,49525 68283,49525 "/>
   <polygon class="fil1 str0" points="33065,67 64371,67 64371,49525 33065,49525 "/>
   <path class="fil2" d="M22644 8947l-19086 27945c-479,702 -736,1533 -736,2383 0,2332 1891,4224 4225,4224 1395,0 2700,-690 3488,-1842l16470 -24114c196,-288 523,-461 872,-461 349,0 675,173 872,461l16481 24130c787,1153 2092,1842 3488,1842 1396,0 2701,-689 3488,-1842l17714 -25935c472,-691 1255,-1105 2092,-1105l10491 0c1400,0 2534,1135 2534,2535l0 22123c0,2333 1892,4224 4225,4224 2333,0 4224,-1891 4224,-4224l0 -26770c0,-3499 -2837,-6336 -6336,-6336l-17591 0c-2093,0 -4052,1034 -5233,2762l-14736 21577c-197,288 -523,460 -872,460 -349,0 -675,-172 -872,-460l-14737 -21577c-1181,-1728 -3139,-2762 -5232,-2762 -2094,0 -4052,1034 -5233,2762z"/>
  </g>
 </g>
</svg>
